<?xml version="1.0" ?><svg height="512" preserveAspectRatio="xMidYMid" viewBox="0 0 512 512" width="512" xmlns="http://www.w3.org/2000/svg" xmlns:xlink="http://www.w3.org/1999/xlink"><defs><style>
      .cls-1 {
        fill: #3498db;
      }

      .cls-2 {
        fill: #000;
        opacity: 0.3;
      }

      .cls-2, .cls-3 {
        fill-rule: evenodd;
      }

      .cls-3 {
        fill: #fff;
      }
    </style></defs><g><circle class="cls-1" cx="256" cy="256" r="256"/><path class="cls-2" d="M128.000,202.000 L1.038,279.214 C12.769,409.720 122.440,512.000 256.000,512.000 C268.477,512.000 280.746,511.107 292.747,509.382 L382.971,298.613 L375.000,229.000 L343.000,229.000 L325.000,202.000 L311.000,218.000 L255.000,202.000 L237.139,217.533 L211.000,203.000 L194.535,215.851 L163.000,202.000 L150.184,210.406 L128.000,202.000 Z"/><path class="cls-3" d="M211.233,201.996 L246.733,201.996 L246.733,309.190 L224.698,309.190 L223.474,245.120 L212.457,307.958 L196.544,307.958 L184.302,245.120 L184.287,309.630 L162.268,309.190 L162.268,201.996 L196.544,201.996 L204.690,249.195 L211.233,201.996 ZM290.802,284.547 C290.802,280.708 290.802,229.232 290.802,227.870 C290.802,226.508 291.027,219.399 281.008,219.246 C281.008,248.261 281.008,261.959 281.008,289.476 C286.006,289.359 290.802,288.386 290.802,284.547 M254.078,307.958 C254.078,307.958 280.188,307.958 301.819,307.958 C306.160,307.958 316.142,304.178 316.207,294.233 C316.252,287.403 316.369,230.063 316.484,219.828 C316.484,212.124 306.479,201.996 299.370,201.996 C278.524,201.996 254.078,201.996 254.078,201.996 L254.078,307.958 ZM349.560,226.638 L349.560,201.996 L325.077,201.996 L325.077,309.190 C325.077,309.190 344.142,309.541 345.887,309.190 C347.632,308.838 352.008,303.029 352.008,303.029 C352.008,303.029 365.049,317.997 379.687,304.052 C381.059,302.745 383.486,300.205 383.835,296.869 C384.184,293.532 383.835,235.082 383.835,232.799 C383.835,230.516 382.485,227.772 381.751,226.706 C370.526,210.399 349.560,226.638 349.560,226.638 ZM350.784,237.727 C350.784,243.347 350.784,287.374 350.784,291.940 C350.784,296.506 358.129,297.736 358.129,291.940 C358.129,286.145 358.129,243.172 358.129,237.727 C358.129,232.283 350.784,232.107 350.784,237.727 ZM127.992,201.996 L152.475,201.996 L152.475,307.958 L127.992,307.958 L127.992,201.996 Z"/></g></svg>